<?xml version="1.0" encoding="UTF-8"?>
<svg width="128px" height="128px" viewBox="0 0 128 128" version="1.1" xmlns="http://www.w3.org/2000/svg">
  <circle cx="64" cy="64" r="60" fill="#FF5E5E" />
  <circle cx="64" cy="64" r="50" fill="#1C1C1C" />
  
  <!-- Magnet body -->
  <path d="M64,35 L64,65 C78,65 88,55 88,45 C88,35 78,35 64,35 Z" fill="#9945FF" />
  <path d="M64,35 L64,65 C50,65 40,55 40,45 C40,35 50,35 64,35 Z" fill="#FF0000" />
  
  <!-- Magnet poles -->
  <text x="52" y="55" font-family="Arial" font-size="16" font-weight="bold" text-anchor="middle" fill="#FFFFFF">N</text>
  <text x="76" y="55" font-family="Arial" font-size="16" font-weight="bold" text-anchor="middle" fill="#FFFFFF">S</text>
  
  <!-- People icons being attracted (minimalist) -->
  <g transform="translate(36, 80)">
    <circle cx="0" cy="0" r="4" fill="#FFFFFF" />
    <path d="M0,4 L0,12" stroke="#FFFFFF" stroke-width="2" />
    <path d="M-5,6 L0,4 L5,6" stroke="#FFFFFF" stroke-width="2" />
    <path d="M-3,12 L0,9 L3,12" stroke="#FFFFFF" stroke-width="2" />
  </g>
  
  <g transform="translate(48, 85)">
    <circle cx="0" cy="0" r="4" fill="#FFFFFF" />
    <path d="M0,4 L0,12" stroke="#FFFFFF" stroke-width="2" />
    <path d="M-5,6 L0,4 L5,6" stroke="#FFFFFF" stroke-width="2" />
    <path d="M-3,12 L0,9 L3,12" stroke="#FFFFFF" stroke-width="2" />
  </g>
  
  <g transform="translate(60, 90)">
    <circle cx="0" cy="0" r="4" fill="#FFFFFF" />
    <path d="M0,4 L0,12" stroke="#FFFFFF" stroke-width="2" />
    <path d="M-5,6 L0,4 L5,6" stroke="#FFFFFF" stroke-width="2" />
    <path d="M-3,12 L0,9 L3,12" stroke="#FFFFFF" stroke-width="2" />
  </g>
  
  <g transform="translate(72, 85)">
    <circle cx="0" cy="0" r="4" fill="#FFFFFF" />
    <path d="M0,4 L0,12" stroke="#FFFFFF" stroke-width="2" />
    <path d="M-5,6 L0,4 L5,6" stroke="#FFFFFF" stroke-width="2" />
    <path d="M-3,12 L0,9 L3,12" stroke="#FFFFFF" stroke-width="2" />
  </g>
  
  <g transform="translate(84, 80)">
    <circle cx="0" cy="0" r="4" fill="#FFFFFF" />
    <path d="M0,4 L0,12" stroke="#FFFFFF" stroke-width="2" />
    <path d="M-5,6 L0,4 L5,6" stroke="#FFFFFF" stroke-width="2" />
    <path d="M-3,12 L0,9 L3,12" stroke="#FFFFFF" stroke-width="2" />
  </g>
  
  <!-- Attraction lines -->
  <path d="M36,75 C40,70 45,68 52,65" stroke="#FFEE00" stroke-width="1" stroke-dasharray="2,1" fill="none" />
  <path d="M48,80 C50,75 54,72 58,65" stroke="#FFEE00" stroke-width="1" stroke-dasharray="2,1" fill="none" />
  <path d="M60,85 L64,65" stroke="#FFEE00" stroke-width="1" stroke-dasharray="2,1" fill="none" />
  <path d="M72,80 C70,75 66,72 62,65" stroke="#FFEE00" stroke-width="1" stroke-dasharray="2,1" fill="none" />
  <path d="M84,75 C80,70 75,68 68,65" stroke="#FFEE00" stroke-width="1" stroke-dasharray="2,1" fill="none" />
  
  <!-- Number 50 badge -->
  <circle cx="95" cy="35" r="14" fill="#FFEE00" />
  <text x="95" y="40" font-family="Arial" font-size="14" font-weight="bold" text-anchor="middle" fill="#1C1C1C">50</text>
</svg>