<?xml version="1.0" encoding="UTF-8"?>
<svg width="128px" height="128px" viewBox="0 0 128 128" version="1.1" xmlns="http://www.w3.org/2000/svg">
  <circle cx="64" cy="64" r="60" fill="#9945FF" />
  <circle cx="64" cy="64" r="50" fill="#1C1C1C" />
  
  <!-- Star burst background -->
  <g opacity="0.4">
    <line x1="64" y1="25" x2="64" y2="35" stroke="#14F195" stroke-width="2" />
    <line x1="64" y1="93" x2="64" y2="103" stroke="#14F195" stroke-width="2" />
    <line x1="25" y1="64" x2="35" y2="64" stroke="#14F195" stroke-width="2" />
    <line x1="93" y1="64" x2="103" y2="64" stroke="#14F195" stroke-width="2" />
    
    <line x1="36" y1="36" x2="43" y2="43" stroke="#14F195" stroke-width="2" />
    <line x1="85" y1="85" x2="92" y2="92" stroke="#14F195" stroke-width="2" />
    <line x1="36" y1="92" x2="43" y2="85" stroke="#14F195" stroke-width="2" />
    <line x1="85" y1="43" x2="92" y2="36" stroke="#14F195" stroke-width="2" />
  </g>
  
  <!-- Magic wand -->
  <line x1="44" y1="84" x2="72" y2="56" stroke="#FFD700" stroke-width="4" />
  <rect x="40" y="82" width="8" height="16" rx="2" fill="#8B4513" transform="rotate(-45 44 90)" />
  
  <!-- Sparkling star at wand tip -->
  <path d="M72,56 L76,50 L80,56 L86,60 L80,64 L76,70 L72,64 L66,60 Z" fill="#FFD700" />
  <circle cx="76" cy="60" r="3" fill="#FFFFFF" />
  
  <!-- Event token being created -->
  <circle cx="76" cy="60" r="18" stroke="#14F195" stroke-width="2" fill="none" />
  <text x="76" y="65" font-family="Arial" font-size="10" font-weight="bold" text-anchor="middle" fill="#14F195">EVENT</text>
  
  <!-- Small sparkles -->
  <circle cx="86" cy="48" r="2" fill="#FFFFFF" />
  <circle cx="90" cy="56" r="1" fill="#FFFFFF" />
  <circle cx="88" cy="64" r="1.5" fill="#FFFFFF" />
</svg>