<?xml version="1.0" encoding="UTF-8"?>
<svg width="128px" height="128px" viewBox="0 0 128 128" version="1.1" xmlns="http://www.w3.org/2000/svg">
  <circle cx="64" cy="64" r="60" fill="#9945FF" />
  <circle cx="64" cy="64" r="50" fill="#1C1C1C" />
  
  <!-- Calendar icon -->
  <rect x="40" y="36" width="48" height="48" rx="4" fill="#14F195" />
  <rect x="44" y="40" width="40" height="40" rx="2" fill="#1C1C1C" />
  
  <!-- Calendar header -->
  <rect x="44" y="40" width="40" height="8" fill="#9945FF" />
  
  <!-- Calendar grid lines -->
  <line x1="54" y1="53" x2="54" y2="75" stroke="#555555" stroke-width="1" />
  <line x1="64" y1="53" x2="64" y2="75" stroke="#555555" stroke-width="1" />
  <line x1="74" y1="53" x2="74" y2="75" stroke="#555555" stroke-width="1" />
  
  <line x1="44" y1="53" x2="84" y2="53" stroke="#555555" stroke-width="1" />
  <line x1="44" y1="60" x2="84" y2="60" stroke="#555555" stroke-width="1" />
  <line x1="44" y1="67" x2="84" y2="67" stroke="#555555" stroke-width="1" />
  
  <!-- Checkmark for first event -->
  <circle cx="64" cy="70" r="8" fill="#9945FF" />
  <path d="M60,70 L63,73 L68,67" stroke="#FFFFFF" stroke-width="2" fill="none" />
  
  <!-- Number 1 badge -->
  <circle cx="90" cy="38" r="14" fill="#FFEE00" />
  <text x="90" y="43" font-family="Arial" font-size="20" font-weight="bold" text-anchor="middle" fill="#000000">1</text>
</svg>