<?xml version="1.0" encoding="UTF-8"?>
<svg width="128px" height="128px" viewBox="0 0 128 128" version="1.1" xmlns="http://www.w3.org/2000/svg">
  <circle cx="64" cy="64" r="60" fill="#9945FF" />
  <circle cx="64" cy="64" r="50" fill="#1C1C1C" />
  
  <!-- Multiple tickets -->
  <g transform="rotate(-10 64 64)">
    <rect x="36" y="42" width="56" height="28" rx="3" fill="#14F195" opacity="0.6" />
  </g>
  
  <g transform="rotate(-5 64 64)">
    <rect x="36" y="46" width="56" height="28" rx="3" fill="#14F195" opacity="0.8" />
  </g>
  
  <!-- Main ticket -->
  <rect x="36" y="50" width="56" height="28" rx="3" fill="#14F195" />
  
  <!-- Ticket details -->
  <rect x="40" y="54" width="24" height="4" fill="#1C1C1C" />
  <rect x="40" y="62" width="48" height="2" fill="#1C1C1C" />
  <rect x="40" y="68" width="48" height="2" fill="#1C1C1C" />
  
  <!-- Perforation line -->
  <line x1="70" y1="50" x2="70" y2="78" stroke="#1C1C1C" stroke-width="2" stroke-dasharray="2,2" />
  
  <!-- Calendar icon with check marks -->
  <g transform="translate(72, 87) scale(0.5)">
    <rect x="-14" y="-14" width="28" height="28" rx="3" fill="#FFFFFF" />
    <rect x="-10" y="-10" width="20" height="20" rx="1" fill="#9945FF" />
    <path d="M-6,-2 L-3,1 L7,-7" stroke="#FFFFFF" stroke-width="2" fill="none" />
  </g>
  
  <g transform="translate(86, 87) scale(0.5)">
    <rect x="-14" y="-14" width="28" height="28" rx="3" fill="#FFFFFF" />
    <rect x="-10" y="-10" width="20" height="20" rx="1" fill="#9945FF" />
    <path d="M-6,-2 L-3,1 L7,-7" stroke="#FFFFFF" stroke-width="2" fill="none" />
  </g>
  
  <g transform="translate(100, 87) scale(0.5)">
    <rect x="-14" y="-14" width="28" height="28" rx="3" fill="#FFFFFF" />
    <rect x="-10" y="-10" width="20" height="20" rx="1" fill="#9945FF" />
    <path d="M-6,-2 L-3,1 L7,-7" stroke="#FFFFFF" stroke-width="2" fill="none" />
  </g>
  
  <!-- Number 5 badge -->
  <circle cx="95" cy="40" r="14" fill="#FFEE00" />
  <text x="95" y="46" font-family="Arial" font-size="18" font-weight="bold" text-anchor="middle" fill="#000000">5</text>
</svg>